<svg xmlns="http://www.w3.org/2000/svg" viewBox="0 0 1440 40" preserveAspectRatio="none" width="100%" height="40">
  <!--
    Torn edge variant 1 — gentle, mostly horizontal with sparse jagged dips.
    Fill the path with the destination zone color via `fill="currentColor"` at usage site.
  -->
  <path d="M0,0 L0,22 L18,28 L42,18 L78,30 L112,22 L148,32 L186,20 L222,28 L260,18 L296,30 L332,22 L370,32 L408,20 L446,28 L482,18 L520,30 L558,22 L596,32 L634,20 L672,28 L710,18 L748,30 L786,22 L824,32 L862,20 L900,28 L938,18 L976,30 L1014,22 L1052,32 L1090,20 L1128,28 L1166,18 L1204,30 L1242,22 L1280,32 L1318,20 L1356,28 L1394,18 L1432,30 L1440,22 L1440,0 Z" fill="currentColor" />
</svg>
