<svg xmlns="http://www.w3.org/2000/svg" viewBox="0 0 1440 40" preserveAspectRatio="none" width="100%" height="40">
  <!-- Torn edge variant 3 — small dense teeth, fewer deep dips. -->
  <path d="M0,0 L0,24 L12,18 L24,28 L38,20 L52,30 L66,22 L80,28 L96,18 L112,30 L128,22 L144,28 L160,18 L178,32 L196,22 L214,28 L232,18 L250,30 L268,22 L286,28 L304,18 L322,30 L340,22 L358,28 L376,18 L394,30 L412,22 L430,28 L448,18 L466,30 L484,22 L502,28 L520,18 L538,30 L556,22 L574,28 L592,18 L610,30 L628,22 L646,28 L664,18 L682,30 L700,22 L718,28 L736,18 L754,30 L772,22 L790,28 L808,18 L826,30 L844,22 L862,28 L880,18 L898,30 L916,22 L934,28 L952,18 L970,30 L988,22 L1006,28 L1024,18 L1042,30 L1060,22 L1078,28 L1096,18 L1114,30 L1132,22 L1150,28 L1168,18 L1186,30 L1204,22 L1222,28 L1240,18 L1258,30 L1276,22 L1294,28 L1312,18 L1330,30 L1348,22 L1366,28 L1384,18 L1402,30 L1420,22 L1438,28 L1440,24 L1440,0 Z" fill="currentColor" />
</svg>
