<svg xmlns="http://www.w3.org/2000/svg" viewBox="0 0 1440 40" preserveAspectRatio="none" width="100%" height="40">
  <!-- Torn edge variant 4 — irregular long-and-short rhythm. -->
  <path d="M0,0 L0,20 L36,32 L74,14 L96,28 L132,10 L168,30 L204,18 L228,34 L262,16 L298,28 L322,10 L362,32 L394,18 L426,30 L458,12 L490,28 L522,16 L558,34 L592,20 L628,12 L660,30 L694,18 L728,28 L762,14 L796,32 L832,18 L866,28 L898,12 L934,30 L968,18 L1002,32 L1036,14 L1070,28 L1104,18 L1138,32 L1170,16 L1204,28 L1238,12 L1272,30 L1304,18 L1340,28 L1372,14 L1406,32 L1440,20 L1440,0 Z" fill="currentColor" />
</svg>
