<svg xmlns="http://www.w3.org/2000/svg" viewBox="0 0 1440 40" preserveAspectRatio="none" width="100%" height="40">
  <!-- Torn edge variant 2 — deeper rip, asymmetric tongues. -->
  <path d="M0,0 L0,16 L24,30 L52,12 L82,34 L110,18 L142,28 L168,10 L196,32 L228,16 L262,30 L300,12 L338,34 L370,18 L402,28 L432,10 L468,32 L500,16 L532,30 L568,12 L604,34 L640,18 L678,28 L712,10 L748,32 L780,16 L816,30 L850,12 L886,34 L922,18 L958,28 L992,10 L1028,32 L1062,16 L1098,30 L1132,12 L1168,34 L1204,18 L1240,28 L1274,10 L1310,32 L1346,16 L1380,30 L1414,12 L1440,28 L1440,0 Z" fill="currentColor" />
</svg>
